<?xml version="1.0" encoding="UTF-8"?>
<svg id="Layer_1" xmlns="http://www.w3.org/2000/svg" version="1.1" viewBox="0 0 1000 1000">
  <!-- Generator: Adobe Illustrator 29.1.0, SVG Export Plug-In . SVG Version: 2.1.0 Build 142)  -->
  <defs>
    <style>
      .st0 {
        fill: #010101;
      }

      .st1 {
        fill: #231f20;
      }

      .st2 {
        fill: #662511;
      }

      .st3 {
        fill: #b43f26;
      }

      .st4 {
        fill: #f15a30;
      }
    </style>
  </defs>
  <g>
    <rect class="st0" x="40.4" y="308.4" width="160.8" height="160.8"/>
    <rect class="st4" x="201.2" y="308.4" width="160.8" height="160.8"/>
    <rect class="st2" x="40.4" y="469.1" width="160.8" height="160.8"/>
    <rect class="st3" x="201.2" y="469.1" width="160.8" height="160.8"/>
  </g>
  <g>
    <path class="st1" d="M414.2,383.9c-4.5,0-8.9-.8-13.2-2.5-4.3-1.7-8.2-4.3-11.6-7.7-3.3-3.4-5.8-7.2-7.6-11.4-1.8-4.2-2.6-8.7-2.6-13.4s.9-9.3,2.6-13.5c1.8-4.2,4.3-8,7.6-11.3s7.3-6,11.7-7.7c4.3-1.7,8.8-2.6,13.2-2.6s8.9.9,13.2,2.6,8.2,4.3,11.6,7.7l-11.4,11.4c-1.9-1.8-4-3.2-6.3-4.2s-4.7-1.4-7.2-1.4-4.8.5-7.1,1.4c-2.3.9-4.4,2.3-6.3,4.2-1.8,1.8-3.2,3.9-4.1,6.2-1,2.3-1.4,4.7-1.4,7.3s.5,5,1.4,7.2c1,2.3,2.3,4.3,4.1,6.2,1.8,1.9,3.9,3.2,6.3,4.2,2.3.9,4.7,1.4,7.1,1.4s4.8-.5,7.2-1.4c2.4-.9,4.5-2.3,6.3-4.2l11.4,11.5c-3.4,3.4-7.3,6-11.6,7.7-4.3,1.7-8.7,2.5-13.3,2.5Z"/>
    <path class="st1" d="M474.1,313.7c4.8,0,9.4.9,13.7,2.8s8,4.4,11.2,7.5,5.7,6.9,7.5,11.1c1.8,4.3,2.8,8.8,2.8,13.7s-.9,9.4-2.8,13.7c-1.8,4.3-4.4,8-7.5,11.1s-6.9,5.7-11.2,7.5c-4.3,1.9-8.8,2.8-13.7,2.8s-9.4-.9-13.7-2.8c-4.3-1.8-8-4.4-11.1-7.5s-5.7-6.9-7.5-11.1c-1.8-4.3-2.8-8.8-2.8-13.7s.9-9.4,2.8-13.7c1.8-4.3,4.3-8,7.5-11.1,3.2-3.2,6.9-5.7,11.1-7.5,4.3-1.8,8.8-2.8,13.7-2.8ZM474.2,367.7c2.6,0,5.1-.5,7.4-1.5,2.3-1,4.3-2.3,6-4.1,1.7-1.7,3.1-3.7,4.1-6,1-2.3,1.5-4.7,1.5-7.4s-.5-5.1-1.5-7.4c-1-2.3-2.3-4.3-4.1-6s-3.7-3.1-6-4.1c-2.3-1-4.7-1.5-7.4-1.5s-5.1.5-7.4,1.5-4.3,2.3-6,4.1c-1.7,1.7-3.1,3.7-4.1,6-1,2.3-1.5,4.8-1.5,7.4s.5,5.1,1.5,7.4c1,2.3,2.3,4.3,4.1,6,1.7,1.7,3.7,3.1,6,4.1,2.3,1,4.7,1.5,7.4,1.5Z"/>
    <path class="st1" d="M561,313.7h16.6l4.1,70.3h-16.2l-1.7-28.7-9.8,28.7h-16.2l-10.3-29.8-1.9,29.8h-16.3l4.5-70.3h16.6l15.4,44,15-44Z"/>
    <path class="st1" d="M633.5,313.7h16.6l4.1,70.3h-16.2l-1.7-28.7-9.8,28.7h-16.2l-10.3-29.8-1.9,29.8h-16.3l4.5-70.3h16.6l15.4,44,15-44Z"/>
    <path class="st1" d="M703.1,329.9h-28.9v10.6h23.4v16.2h-23.4v11.1h28.9v16.2h-45v-70.1h45c0,0,0,16.1,0,16.1Z"/>
    <path class="st1" d="M732.7,365.8c-.8.1-1.7.2-2.5.3-.8,0-1.7.1-2.6.2v17.7h-16.2v-69.9h16.2c4,0,7.8.8,11.3,2.2s6.6,3.3,9.2,5.6c2.6,2.4,4.7,5.1,6.2,8.2,1.5,3.1,2.2,6.5,2.2,10s-.8,7.2-2.4,10.5c-1.6,3.2-3.8,6-6.7,8.4l15.5,25h-19l-11.3-18.2ZM727.6,350c1.7,0,3.4-.4,4.9-.9,1.6-.5,2.9-1.3,4.1-2.2,1.2-.9,2.1-1.9,2.8-3.1s1-2.4,1-3.8-.3-2.6-1-3.7-1.6-2.2-2.8-3.1c-1.2-.9-2.6-1.6-4.1-2.2-1.6-.5-3.2-.8-4.9-.9v19.8Z"/>
    <path class="st1" d="M800.4,383.9c-4.5,0-8.9-.8-13.2-2.5-4.3-1.7-8.2-4.3-11.6-7.7-3.3-3.4-5.9-7.2-7.6-11.4-1.8-4.2-2.6-8.7-2.6-13.4s.9-9.3,2.6-13.5c1.8-4.2,4.3-8,7.6-11.3,3.4-3.4,7.3-6,11.7-7.7s8.8-2.6,13.2-2.6,8.9.9,13.2,2.6,8.2,4.3,11.6,7.7l-11.4,11.4c-1.9-1.8-4-3.2-6.3-4.2-2.4-.9-4.8-1.4-7.2-1.4s-4.8.5-7.1,1.4-4.4,2.3-6.3,4.2c-1.8,1.8-3.2,3.9-4.1,6.2-1,2.3-1.4,4.7-1.4,7.3s.5,5,1.4,7.2c1,2.3,2.3,4.3,4.1,6.2,1.8,1.9,3.9,3.2,6.3,4.2,2.3.9,4.7,1.4,7.1,1.4s4.8-.5,7.2-1.4c2.4-.9,4.5-2.3,6.3-4.2l11.4,11.5c-3.4,3.4-7.3,6-11.6,7.7-4.3,1.7-8.7,2.5-13.3,2.5Z"/>
    <path class="st1" d="M846.2,384h-16.2v-70.3h16.2v70.3Z"/>
    <path class="st1" d="M896,384l-2.8-8.5h-22.1l-2.9,8.5h-17.1l23.9-70.2h15.3l22.7,70.2h-17ZM876.6,359.3h11.4l-5.5-17-5.8,17Z"/>
    <path class="st1" d="M959.6,384h-41.8v-70.3h16.2v54.1h25.6v16.2Z"/>
    <path class="st1" d="M426.3,444.7h-26.2v10.6h20.8v16.2h-20.8v27.3h-16.2v-70.2h42.4v16.2Z"/>
    <path class="st1" d="M449.1,498.7h-16.2v-70.3h16.2v70.3Z"/>
    <path class="st1" d="M500.5,498.7h-41.8v-70.3h16.2v54.1h25.6v16.2Z"/>
    <path class="st1" d="M553.9,428.5h16.6l4.1,70.3h-16.2l-1.7-28.7-9.8,28.7h-16.2l-10.3-29.8-1.9,29.8h-16.3l4.5-70.3h16.6l15.4,44,15-44Z"/>
    <path class="st1" d="M429,572.9c0,4-.7,7.8-2.2,11.3s-3.6,6.6-6.2,9.3-5.7,4.8-9.2,6.4-7.3,2.4-11.3,2.4v11.2h-16.2v-70.2h16.2c4,0,7.8.9,11.3,2.5,3.5,1.6,6.6,3.7,9.2,6.4,2.6,2.7,4.7,5.8,6.2,9.3s2.2,7.3,2.2,11.3ZM400.1,586.2c1.8,0,3.5-.5,5-1.2,1.6-.7,2.9-1.7,4.1-2.9s2.1-2.6,2.7-4.2c.7-1.6,1-3.3,1-5.1s-.3-3.5-1-5.1c-.7-1.6-1.6-3-2.7-4.2s-2.5-2.1-4.1-2.9c-1.6-.7-3.2-1.1-5-1.2v26.7Z"/>
    <path class="st1" d="M459.8,595.3c-.8.1-1.7.2-2.5.3s-1.7.1-2.6.2v17.7h-16.2v-69.9h16.2c4,0,7.8.8,11.3,2.2s6.6,3.3,9.2,5.6c2.6,2.4,4.7,5.1,6.2,8.2,1.5,3.1,2.2,6.5,2.2,10s-.8,7.2-2.4,10.5c-1.6,3.2-3.8,6-6.7,8.4l15.5,25h-19l-11.3-18.2ZM454.8,579.6c1.7,0,3.4-.4,4.9-.9,1.6-.5,2.9-1.3,4.1-2.2,1.2-.9,2.1-1.9,2.8-3.1.7-1.2,1-2.4,1-3.8s-.3-2.6-1-3.7c-.7-1.1-1.6-2.2-2.8-3.1-1.2-.9-2.6-1.6-4.1-2.2-1.6-.5-3.2-.8-4.9-.9v19.8Z"/>
    <path class="st1" d="M527.5,543.2c4.8,0,9.4.9,13.7,2.8s8,4.4,11.2,7.5c3.2,3.2,5.7,6.9,7.5,11.1,1.8,4.3,2.8,8.8,2.8,13.7s-.9,9.4-2.8,13.7c-1.8,4.3-4.4,8-7.5,11.1s-6.9,5.7-11.2,7.5c-4.3,1.9-8.8,2.8-13.7,2.8s-9.4-.9-13.7-2.8c-4.3-1.8-8-4.4-11.1-7.5s-5.7-6.9-7.5-11.1c-1.8-4.3-2.8-8.8-2.8-13.7s.9-9.4,2.8-13.7c1.8-4.3,4.3-8,7.5-11.1,3.2-3.2,6.9-5.7,11.1-7.5,4.3-1.8,8.8-2.8,13.7-2.8ZM527.5,597.3c2.6,0,5.1-.5,7.4-1.5,2.3-1,4.3-2.3,6-4.1,1.7-1.7,3.1-3.7,4.1-6,1-2.3,1.5-4.7,1.5-7.4s-.5-5.1-1.5-7.4c-1-2.3-2.3-4.3-4.1-6s-3.7-3.1-6-4.1c-2.3-1-4.7-1.5-7.4-1.5s-5.1.5-7.4,1.5-4.3,2.3-6,4.1c-1.7,1.7-3.1,3.7-4.1,6-1,2.3-1.5,4.8-1.5,7.4s.5,5.1,1.5,7.4c1,2.3,2.3,4.3,4.1,6,1.7,1.7,3.7,3.1,6,4.1,2.3,1,4.7,1.5,7.4,1.5Z"/>
    <path class="st1" d="M588.4,614.9c-2.2,0-4.4-.3-6.6-.9-2.2-.6-4.3-1.5-6.3-2.8-3.4-2.2-6.1-5.1-8-8.7s-2.9-7.4-2.9-11.6h16.2c0,1.9.4,3.4,1.2,4.4.8,1.1,1.6,1.8,2.2,2.2,1.1.8,2.4,1.2,3.7,1.2,1.3,0,2.6-.2,3.9-.8.9-.4,1.6-.9,2.2-1.4.5-.6,1-1.1,1.2-1.7.3-.5.5-1.1.5-1.6s0-.9,0-1.2,0-.7,0-1.2-.2-1.1-.5-1.6c-.3-.6-.7-1.1-1.2-1.7-.5-.5-1.3-1-2.2-1.5-.7-.3-1.4-.6-2.2-.9s-1.6-.5-2.5-.9c-1.6-.5-3.3-1.1-5-1.7-1.7-.6-3.4-1.5-5.2-2.6-2.2-1.4-4.1-3.2-5.6-5.3-1.5-2.1-2.6-4.4-3.3-6.8-.7-2.4-.9-4.9-.7-7.5.2-2.6.9-5.1,2.2-7.4,1.1-2.2,2.6-4,4.3-5.6,1.7-1.6,3.6-2.9,5.7-3.8,2.1-.9,4.4-1.5,6.8-1.7,2.4-.2,4.9,0,7.4.7,2.4.6,4.6,1.5,6.6,2.7,2,1.2,3.7,2.7,5.1,4.5,1.4,1.8,2.5,3.7,3.3,5.9s1.1,4.4,1.1,6.8h-16.1c0-1.5-.5-2.5-1.4-3.1-.9-.6-1.7-1-2.4-1.1-.1,0-.4,0-.9-.1-.5,0-1,0-1.6,0-.6,0-1.2.3-1.9.7-.6.4-1.1.9-1.5,1.7-.5,1-.6,2.1-.3,3.2.3,1.1,1,2,1.9,2.6.9.5,1.9,1,3,1.4,1.1.4,2.2.8,3.4,1.2,1.1.3,2.2.7,3.3,1.1,1.1.4,2.2.8,3.4,1.3,4.2,1.9,7.5,4.7,9.8,8.4,2.4,3.7,3.6,7.8,3.6,12.3s-1.2,8.5-3.6,12.2c-2.4,3.7-5.7,6.5-9.8,8.4-1.7.8-3.3,1.3-5.1,1.7-1.7.4-3.4.5-5.2.5Z"/>
  </g>
</svg>